<?xml version="1.0" encoding="utf-8" standalone="no"?>
<!DOCTYPE svg PUBLIC "-//W3C//DTD SVG 1.1//EN"
  "http://www.w3.org/Graphics/SVG/1.1/DTD/svg11.dtd">
<svg xmlns:xlink="http://www.w3.org/1999/xlink" width="81pt" height="17.881094pt" viewBox="0 0 81 17.881094" xmlns="http://www.w3.org/2000/svg" version="1.1">
 <metadata>
  <rdf:RDF xmlns:dc="http://purl.org/dc/elements/1.1/" xmlns:cc="http://creativecommons.org/ns#" xmlns:rdf="http://www.w3.org/1999/02/22-rdf-syntax-ns#">
   <cc:Work>
    <dc:type rdf:resource="http://purl.org/dc/dcmitype/StillImage"/>
    <dc:date>2026-04-02T21:09:22.753770</dc:date>
    <dc:format>image/svg+xml</dc:format>
    <dc:creator>
     <cc:Agent>
      <dc:title>Matplotlib v3.10.8, https://matplotlib.org/</dc:title>
     </cc:Agent>
    </dc:creator>
   </cc:Work>
  </rdf:RDF>
 </metadata>
 <defs>
  <style type="text/css">*{stroke-linejoin: round; stroke-linecap: butt}</style>
 </defs>
 <g id="figure_1">
  <g id="patch_1">
   <path d="M -0 17.881094 
L 81 17.881094 
L 81 -0 
L -0 -0 
L -0 17.881094 
z
" style="fill: none; opacity: 0"/>
  </g>
  <g id="axes_1">
   <g id="text_1">
    <!-- $E_i = g(s_i,\, C_i)$ -->
    <g style="fill: #262626" transform="translate(1.44 13.186094) scale(0.155 -0.155)">
     <defs>
      <path id="STIXGeneral-Italic-45" d="M 4058 4179 
L 3859 3194 
L 3718 3206 
Q 3738 3366 3738 3501 
Q 3738 3789 3501 3878 
Q 3264 3968 2509 3968 
Q 2240 3968 2157 3939 
Q 2074 3910 2042 3802 
L 1619 2310 
L 2118 2310 
Q 2541 2310 2681 2412 
Q 2822 2515 3008 2931 
L 3123 2906 
L 2688 1421 
L 2560 1453 
Q 2605 1651 2605 1786 
Q 2605 1939 2560 1984 
Q 2451 2080 2061 2080 
L 1562 2080 
L 1357 1363 
Q 1126 550 1126 429 
Q 1126 211 1632 211 
Q 2458 211 2931 461 
Q 3174 589 3533 1088 
L 3635 1037 
L 3238 0 
L -6 0 
L -6 102 
Q 269 154 352 227 
Q 435 301 512 576 
L 1299 3405 
Q 1370 3642 1370 3814 
Q 1370 3942 1270 3996 
Q 1171 4051 877 4077 
L 877 4179 
L 4058 4179 
z
" transform="scale(0.015625)"/>
      <path id="STIXGeneral-Italic-69" d="M 1690 3834 
Q 1690 3699 1597 3603 
Q 1504 3507 1376 3507 
Q 1235 3507 1152 3600 
Q 1069 3693 1069 3846 
Q 1069 3994 1155 4090 
Q 1242 4186 1370 4186 
Q 1498 4186 1594 4080 
Q 1690 3974 1690 3834 
z
M 1421 730 
L 1504 659 
Q 1235 243 1049 86 
Q 864 -70 627 -70 
Q 314 -70 314 282 
Q 314 467 454 992 
L 762 2125 
Q 819 2330 819 2406 
Q 819 2502 745 2528 
Q 672 2554 410 2560 
L 410 2662 
Q 704 2688 1434 2822 
L 1459 2803 
L 858 608 
Q 794 390 794 326 
Q 794 230 883 230 
Q 1043 230 1421 730 
z
" transform="scale(0.015625)"/>
      <path id="STIXGeneral-Regular-3d" d="M 4077 2048 
L 307 2048 
L 307 2470 
L 4077 2470 
L 4077 2048 
z
M 4077 768 
L 307 768 
L 307 1190 
L 4077 1190 
L 4077 768 
z
" transform="scale(0.015625)"/>
      <path id="STIXGeneral-Italic-67" d="M 3014 2342 
L 2701 2342 
Q 2758 2227 2758 2016 
Q 2758 1613 2390 1289 
Q 2022 966 1574 966 
Q 1459 966 1376 986 
Q 1357 992 1331 992 
Q 1248 992 1174 909 
Q 1101 826 1101 730 
Q 1101 576 1555 461 
Q 2464 243 2464 -352 
Q 2464 -781 2105 -1049 
Q 1747 -1318 1120 -1318 
Q 621 -1318 336 -1142 
Q 51 -966 51 -627 
Q 51 -378 195 -202 
Q 339 -26 800 250 
Q 627 352 627 499 
Q 627 806 1120 1037 
Q 614 1216 614 1728 
Q 614 2202 1004 2512 
Q 1395 2822 1901 2822 
Q 2272 2822 2528 2643 
Q 2598 2592 2630 2592 
L 3014 2592 
L 3014 2342 
z
M 2253 2227 
Q 2253 2477 2166 2579 
Q 2080 2682 1894 2682 
Q 1587 2682 1350 2362 
Q 1114 2042 1114 1581 
Q 1114 1357 1216 1229 
Q 1318 1101 1498 1101 
Q 1818 1101 2042 1478 
Q 2253 1837 2253 2227 
z
M 2080 -576 
Q 2080 -352 1878 -201 
Q 1677 -51 1165 109 
Q 1011 154 947 179 
Q 902 179 752 57 
Q 602 -64 531 -154 
Q 403 -314 403 -525 
Q 403 -1178 1216 -1178 
Q 1594 -1178 1837 -1002 
Q 2080 -826 2080 -576 
z
" transform="scale(0.015625)"/>
      <path id="STIXGeneral-Regular-28" d="M 1946 -1030 
L 1869 -1133 
Q 1126 -710 716 32 
Q 307 774 307 1613 
Q 307 3386 1888 4326 
L 1946 4224 
Q 1293 3667 1075 3126 
Q 858 2586 858 1632 
Q 858 685 1082 96 
Q 1306 -493 1946 -1030 
z
" transform="scale(0.015625)"/>
      <path id="STIXGeneral-Italic-73" d="M 2342 2829 
L 2214 1933 
L 2112 1933 
Q 2022 2675 1542 2675 
Q 1370 2675 1267 2579 
Q 1165 2483 1165 2310 
Q 1165 2067 1510 1658 
Q 1946 1152 1946 787 
Q 1946 397 1686 163 
Q 1427 -70 1024 -70 
Q 838 -70 672 -6 
Q 538 51 390 51 
Q 262 51 205 -83 
L 102 -83 
L 230 934 
L 333 934 
Q 461 64 973 64 
Q 1203 64 1331 192 
Q 1459 320 1459 557 
Q 1459 845 1101 1293 
Q 698 1798 698 2131 
Q 698 2451 909 2636 
Q 1120 2822 1472 2822 
Q 1600 2822 1830 2758 
Q 1971 2714 2061 2714 
Q 2189 2714 2253 2829 
L 2342 2829 
z
" transform="scale(0.015625)"/>
      <path id="STIXGeneral-Regular-2c" d="M 531 -902 
L 467 -781 
Q 998 -422 998 -96 
Q 998 -13 909 -13 
Q 883 -13 822 -25 
Q 762 -38 723 -38 
Q 352 -38 352 288 
Q 352 454 457 553 
Q 563 653 736 653 
Q 954 653 1101 496 
Q 1248 339 1248 96 
Q 1248 -198 1053 -473 
Q 858 -749 531 -902 
z
" transform="scale(0.015625)"/>
      <path id="STIXGeneral-Italic-43" d="M 4410 4250 
L 4173 2970 
L 4058 2989 
Q 3942 4032 3104 4032 
Q 2406 4032 1830 3411 
Q 1491 3053 1315 2541 
Q 1139 2029 1139 1485 
Q 1139 173 2259 173 
Q 2656 173 2985 339 
Q 3315 506 3725 934 
L 3840 838 
Q 3411 333 2998 109 
Q 2586 -115 2093 -115 
Q 1344 -115 883 329 
Q 422 774 422 1555 
Q 422 2214 748 2812 
Q 1075 3411 1619 3795 
Q 2272 4262 3021 4262 
Q 3462 4262 3770 4154 
Q 3898 4109 4032 4109 
Q 4205 4109 4275 4250 
L 4410 4250 
z
" transform="scale(0.015625)"/>
      <path id="STIXGeneral-Regular-29" d="M 186 4224 
L 262 4326 
Q 992 3891 1408 3148 
Q 1824 2406 1824 1581 
Q 1824 -166 243 -1133 
L 186 -1030 
Q 845 -486 1059 54 
Q 1274 595 1274 1562 
Q 1274 2534 1059 3120 
Q 845 3706 186 4224 
z
" transform="scale(0.015625)"/>
     </defs>
     <use xlink:href="#STIXGeneral-Italic-45" transform="translate(0 0.40625)"/>
     <use xlink:href="#STIXGeneral-Italic-69" transform="translate(61.099991 -12.821875) scale(0.7)"/>
     <use xlink:href="#STIXGeneral-Regular-3d" transform="translate(99.409354 0.40625)"/>
     <use xlink:href="#STIXGeneral-Italic-67" transform="translate(182.349335 0.40625)"/>
     <use xlink:href="#STIXGeneral-Regular-28" transform="translate(232.349319 0.40625)"/>
     <use xlink:href="#STIXGeneral-Italic-73" transform="translate(265.649307 0.40625)"/>
     <use xlink:href="#STIXGeneral-Italic-69" transform="translate(304.549301 -12.821875) scale(0.7)"/>
     <use xlink:href="#STIXGeneral-Regular-2c" transform="translate(328.418668 0.40625)"/>
     <use xlink:href="#STIXGeneral-Italic-43" transform="translate(379.89222 0.40625)"/>
     <use xlink:href="#STIXGeneral-Italic-69" transform="translate(446.592217 -12.821875) scale(0.7)"/>
     <use xlink:href="#STIXGeneral-Regular-29" transform="translate(470.461583 0.40625)"/>
    </g>
   </g>
  </g>
 </g>
</svg>
