<?xml version="1.0" encoding="utf-8" standalone="no"?>
<!DOCTYPE svg PUBLIC "-//W3C//DTD SVG 1.1//EN"
  "http://www.w3.org/Graphics/SVG/1.1/DTD/svg11.dtd">
<svg xmlns:xlink="http://www.w3.org/1999/xlink" width="99.6pt" height="17.881094pt" viewBox="0 0 99.6 17.881094" xmlns="http://www.w3.org/2000/svg" version="1.1">
 <metadata>
  <rdf:RDF xmlns:dc="http://purl.org/dc/elements/1.1/" xmlns:cc="http://creativecommons.org/ns#" xmlns:rdf="http://www.w3.org/1999/02/22-rdf-syntax-ns#">
   <cc:Work>
    <dc:type rdf:resource="http://purl.org/dc/dcmitype/StillImage"/>
    <dc:date>2026-04-02T21:09:22.829143</dc:date>
    <dc:format>image/svg+xml</dc:format>
    <dc:creator>
     <cc:Agent>
      <dc:title>Matplotlib v3.10.8, https://matplotlib.org/</dc:title>
     </cc:Agent>
    </dc:creator>
   </cc:Work>
  </rdf:RDF>
 </metadata>
 <defs>
  <style type="text/css">*{stroke-linejoin: round; stroke-linecap: butt}</style>
 </defs>
 <g id="figure_1">
  <g id="patch_1">
   <path d="M -0 17.881094 
L 99.6 17.881094 
L 99.6 -0 
L -0 -0 
L -0 17.881094 
z
" style="fill: none; opacity: 0"/>
  </g>
  <g id="axes_1">
   <g id="text_1">
    <!-- $\in \{E1,\dots,E4\}$ -->
    <g style="fill: #262626" transform="translate(1.44 13.217578) scale(0.155 -0.155)">
     <defs>
      <path id="STIXGeneral-Regular-2208" d="M 4000 -173 
L 2138 -173 
Q 1382 -173 883 355 
Q 384 883 384 1612 
Q 384 2342 877 2870 
Q 1370 3398 2118 3398 
L 4000 3398 
L 4000 2976 
L 2144 2976 
Q 1664 2976 1286 2633 
Q 909 2291 826 1824 
L 4000 1824 
L 4000 1402 
L 819 1402 
Q 902 934 1280 592 
Q 1658 250 2138 250 
L 4000 250 
L 4000 -173 
z
" transform="scale(0.015625)"/>
      <path id="STIXGeneral-Regular-7b" d="M 2240 -1088 
L 2240 -1158 
Q 1702 -1152 1466 -998 
Q 1184 -819 1184 -262 
L 1184 870 
Q 1184 1203 1072 1350 
Q 960 1498 640 1600 
Q 960 1696 1072 1843 
Q 1184 1990 1184 2323 
L 1184 3462 
Q 1184 4019 1466 4192 
Q 1709 4346 2240 4352 
L 2240 4282 
Q 1907 4198 1782 4025 
Q 1658 3853 1658 3494 
L 1658 2419 
Q 1658 2022 1536 1856 
Q 1414 1690 1056 1594 
Q 1414 1504 1536 1337 
Q 1658 1171 1658 774 
L 1658 -301 
Q 1658 -659 1782 -832 
Q 1907 -1005 2240 -1088 
z
" transform="scale(0.015625)"/>
      <path id="STIXGeneral-Italic-45" d="M 4058 4179 
L 3859 3194 
L 3718 3206 
Q 3738 3366 3738 3501 
Q 3738 3789 3501 3878 
Q 3264 3968 2509 3968 
Q 2240 3968 2157 3939 
Q 2074 3910 2042 3802 
L 1619 2310 
L 2118 2310 
Q 2541 2310 2681 2412 
Q 2822 2515 3008 2931 
L 3123 2906 
L 2688 1421 
L 2560 1453 
Q 2605 1651 2605 1786 
Q 2605 1939 2560 1984 
Q 2451 2080 2061 2080 
L 1562 2080 
L 1357 1363 
Q 1126 550 1126 429 
Q 1126 211 1632 211 
Q 2458 211 2931 461 
Q 3174 589 3533 1088 
L 3635 1037 
L 3238 0 
L -6 0 
L -6 102 
Q 269 154 352 227 
Q 435 301 512 576 
L 1299 3405 
Q 1370 3642 1370 3814 
Q 1370 3942 1270 3996 
Q 1171 4051 877 4077 
L 877 4179 
L 4058 4179 
z
" transform="scale(0.015625)"/>
      <path id="STIXGeneral-Regular-31" d="M 2522 0 
L 755 0 
L 755 96 
Q 1107 115 1235 227 
Q 1363 339 1363 608 
L 1363 3482 
Q 1363 3795 1171 3795 
Q 1082 3795 883 3718 
L 710 3654 
L 710 3744 
L 1856 4326 
L 1914 4307 
L 1914 486 
Q 1914 275 2042 185 
Q 2170 96 2522 96 
L 2522 0 
z
" transform="scale(0.015625)"/>
      <path id="STIXGeneral-Regular-2c" d="M 531 -902 
L 467 -781 
Q 998 -422 998 -96 
Q 998 -13 909 -13 
Q 883 -13 822 -25 
Q 762 -38 723 -38 
Q 352 -38 352 288 
Q 352 454 457 553 
Q 563 653 736 653 
Q 954 653 1101 496 
Q 1248 339 1248 96 
Q 1248 -198 1053 -473 
Q 858 -749 531 -902 
z
" transform="scale(0.015625)"/>
      <path id="STIXGeneral-Regular-2026" d="M 5683 275 
Q 5683 134 5577 32 
Q 5472 -70 5325 -70 
Q 5178 -70 5075 32 
Q 4973 134 4973 281 
Q 4973 429 5078 534 
Q 5184 640 5331 640 
Q 5472 640 5577 531 
Q 5683 422 5683 275 
z
M 3552 275 
Q 3552 134 3446 32 
Q 3341 -70 3193 -70 
Q 3046 -70 2944 32 
Q 2842 134 2842 281 
Q 2842 429 2947 534 
Q 3053 640 3200 640 
Q 3341 640 3446 531 
Q 3552 422 3552 275 
z
M 1421 275 
Q 1421 134 1315 32 
Q 1210 -70 1062 -70 
Q 915 -70 812 32 
Q 710 134 710 281 
Q 710 429 816 534 
Q 922 640 1069 640 
Q 1210 640 1315 531 
Q 1421 422 1421 275 
z
" transform="scale(0.015625)"/>
      <path id="STIXGeneral-Regular-34" d="M 3027 1069 
L 2368 1069 
L 2368 0 
L 1869 0 
L 1869 1069 
L 77 1069 
L 77 1478 
L 2086 4326 
L 2368 4326 
L 2368 1478 
L 3027 1478 
L 3027 1069 
z
M 1869 1478 
L 1869 3674 
L 333 1478 
L 1869 1478 
z
" transform="scale(0.015625)"/>
      <path id="STIXGeneral-Regular-7d" d="M 1888 3456 
L 1888 2323 
Q 1888 1990 2000 1843 
Q 2112 1696 2432 1600 
Q 2112 1498 2000 1350 
Q 1888 1203 1888 870 
L 1888 -269 
Q 1888 -826 1606 -998 
Q 1363 -1152 832 -1158 
L 832 -1088 
Q 1165 -1005 1289 -832 
Q 1414 -659 1414 -301 
L 1414 774 
Q 1414 1171 1536 1337 
Q 1658 1504 2016 1600 
Q 1658 1690 1536 1853 
Q 1414 2016 1414 2419 
L 1414 3494 
Q 1414 3853 1289 4025 
Q 1165 4198 832 4282 
L 832 4352 
Q 1370 4346 1606 4192 
Q 1888 4013 1888 3456 
z
" transform="scale(0.015625)"/>
     </defs>
     <use xlink:href="#STIXGeneral-Regular-2208" transform="translate(14.439996 0)"/>
     <use xlink:href="#STIXGeneral-Regular-7b" transform="translate(97.379977 0)"/>
     <use xlink:href="#STIXGeneral-Italic-45" transform="translate(145.379962 0)"/>
     <use xlink:href="#STIXGeneral-Regular-31" transform="translate(206.479953 0)"/>
     <use xlink:href="#STIXGeneral-Regular-2c" transform="translate(256.479938 0)"/>
     <use xlink:href="#STIXGeneral-Regular-2026" transform="translate(310.359915 0)"/>
     <use xlink:href="#STIXGeneral-Regular-2c" transform="translate(424.799896 0)"/>
     <use xlink:href="#STIXGeneral-Italic-45" transform="translate(464.239877 0)"/>
     <use xlink:href="#STIXGeneral-Regular-34" transform="translate(525.339868 0)"/>
     <use xlink:href="#STIXGeneral-Regular-7d" transform="translate(575.339853 0)"/>
    </g>
   </g>
  </g>
 </g>
</svg>
